<?xml version="1.0" encoding="UTF-8"?>
<svg width="180px" height="31px" viewBox="0 0 180 31" version="1.1" xmlns="http://www.w3.org/2000/svg" xmlns:xlink="http://www.w3.org/1999/xlink">
    <!-- Generator: Sketch 53 (72520) - https://sketchapp.com -->
    <title>Logo</title>
    <desc>Created with Sketch.</desc>
    <g id="SoftTracker" stroke="none" stroke-width="1" fill="none" fill-rule="evenodd">
        <g id="教师案例" transform="translate(-40.000000, -979.000000)" fill="#FFFFFF">
            <g id="Footer" transform="translate(0.000000, 927.000000)">
                <g id="Logo" transform="translate(40.000000, 52.000000)">
                    <text id="SoftTracker" font-family="Verdana" font-size="20" font-weight="normal">
                        <tspan x="62.8505859" y="24">SoftTracker</tspan>
                    </text>
                    <g fill-rule="nonzero">
                        <path d="M31.9486615,24.3336154 L31.9486615,29.6071429 C31.9486615,30.376 31.2777396,31 30.451068,31 L1.49759351,31 C0.669923496,31 0,30.376 0,29.6071429 L0,6.39285714 C0,5.62307143 0.669923496,5 1.49759351,5 L30.451068,5 C31.2777396,5 31.9486615,5.62307143 31.9486615,6.39285714 L31.9486615,22.641522 C32.0239458,23.1201945 32.0099216,23.71142 31.9486616,24.3336141 Z M2.01324841,21.1934046 C2.45689416,21.1251578 4.73241972,21.3030394 6.15275068,21.8488613 C7.0634451,22.198834 7.25306202,23.087657 7.42944913,23.0619322 C7.68653566,23.0244379 9.08959435,22.7550491 9.97550202,23.0619322 C10.4189902,23.2155588 10.3042722,23.6990197 10.6638187,23.8772509 C11.0233651,24.0554821 11.4228517,23.5409906 11.6306103,23.6315262 C12.0649189,23.8207861 12.0649189,24.1482331 12.2879467,24.2296232 C12.9775847,24.4812941 13.512002,24.8193535 14.0827372,24.5773037 C14.3814183,24.4506325 15.0322246,23.9877573 15.4303633,24.0554821 C15.9735715,24.1478838 16.264599,24.8152151 16.5601815,24.8668393 C16.875275,24.9218711 17.7158039,25.0271722 17.9899446,25.1341326 C18.5677932,25.3595895 19.009881,25.6855134 19.3464021,26.0576811 C20.4849253,25.8484602 21.7875811,25.7297297 23.1715567,25.7297297 C23.9303355,25.7297297 25.8082568,25.7922453 27.2084187,25.1911887 C27.9221644,24.8847944 28.1925528,24.0829662 28.7848687,23.6779447 C28.9424151,23.5702156 29.9166813,19.5011825 30.0522905,19.3844244 C30.0685362,19.370437 30.0844309,19.3573856 30.0999838,19.3452447 L30.0999838,10.5400579 L2.01324841,10.5400579 L2.01324841,21.1934046 Z M8.64128194,6.83832046 C8.10696329,6.83832046 7.67448101,7.26773458 7.67448101,7.7982626 C7.67448101,8.32879062 8.10696329,8.75820473 8.64128194,8.75820473 C9.17560058,8.75820473 9.60808286,8.32879062 9.60808286,7.7982626 C9.60808286,7.26773458 9.17560058,6.83832046 8.64128194,6.83832046 Z M5.55283818,6.83832046 C5.01851954,6.83832046 4.58603726,7.26773458 4.58603726,7.7982626 C4.58603726,8.32879062 5.01851954,8.75820473 5.55283818,8.75820473 C6.08715683,8.75820473 6.5196391,8.32879062 6.5196391,7.7982626 C6.5196391,7.26773458 6.08715683,6.83832046 5.55283818,6.83832046 Z M2.46439443,6.83832046 C1.93007579,6.83832046 1.49759351,7.26773458 1.49759351,7.7982626 C1.49759351,8.32879062 1.93007579,8.75820473 2.46439443,8.75820473 C2.99871307,8.75820473 3.43119535,8.32879062 3.43119535,7.7982626 C3.43119535,7.26773458 2.99871307,6.83832046 2.46439443,6.83832046 Z" id="Combined-Shape"></path>
                        <g id="火箭" transform="translate(19.000000, 0.000000)" stroke="#FFFFFF">
                            <path d="M4.56183583,20.3899371 L3.55890263,20 L2.55596943,20.3899371 C2.55596943,20.3899371 1.91773922,20.9748428 2.00891496,21.754717 C2.10009071,22.5345912 2.82949667,26.4339623 3.46772688,27.2138365 C4.1059571,26.6289308 4.83536306,22.7295597 4.92653881,21.754717 C5.20006604,20.9748428 4.56183583,20.3899371 4.56183583,20.3899371 Z" id="Path"></path>
                            <path d="M0,23 C0,23 1.89189189,20.2740741 3.5,20.1037037 C5.10810811,20.2740741 7,23 7,23 C6.90540541,20.1037037 5.77027027,18.2296296 5.77027027,18.2296296 C7.18918919,8.51851852 3.40540541,0 3.40540541,0 C3.40540541,0 -0.283783784,8.51851852 1.22972973,18.2296296 C1.22972973,18.2296296 0,20.2740741 0,23 Z" id="Path"></path>
                        </g>
                    </g>
                </g>
            </g>
        </g>
    </g>
</svg>