<?xml version="1.0" encoding="UTF-8"?>
<svg width="1422px" height="932px" viewBox="0 0 1422 932" version="1.1" xmlns="http://www.w3.org/2000/svg" xmlns:xlink="http://www.w3.org/1999/xlink">
    <!-- Generator: Sketch 54 (76480) - https://sketchapp.com -->
    <title>bg</title>
    <desc>Created with Sketch.</desc>
    <g id="SoftTracker" stroke="none" stroke-width="1" fill="none" fill-rule="evenodd">
        <g id="登录" transform="translate(-2.000000, -82.000000)">
            <g id="bg" transform="translate(-0.098584, 72.659317)">
                <g id="Group-19" opacity="0.329999983" transform="translate(814.942933, 720.521910) rotate(-10.000000) translate(-814.942933, -720.521910) translate(536.942933, 484.021910)">
                    <g id="Group-17" transform="translate(280.821178, 207.507763) rotate(275.000000) translate(-280.821178, -207.507763) translate(257.321178, 184.007763)" fill="#BACAD9">
                        <ellipse id="Oval-4" opacity="0.45" cx="23.125" cy="23.1372549" rx="23.125" ry="23.1372549"></ellipse>
                        <path d="M46.25,46.2745098 C46.25,33.4961568 35.8965848,23.1372549 23.125,23.1372549 C10.3534152,23.1372549 0,33.4961568 0,46.2745098 L46.25,46.2745098 Z" id="Oval-4" transform="translate(23.125000, 34.705882) scale(-1, -1) translate(-23.125000, -34.705882) "></path>
                    </g>
                    <circle id="Oval-5-Copy-6" fill="#CFDAE6" cx="401.095485" cy="173.434232" r="11.5"></circle>
                    <path d="M285.662513,175.849755 L308.472929,35.0728835" id="Path-17" stroke="#BACAD9" stroke-width="1.16666667"></path>
                    <path d="M35.5828078,73.7889725 L253.582808,193.788972" id="Path-18" stroke="#BACAD9" stroke-width="1.16666667"></path>
                    <polyline id="Path-19" stroke="#CFDAE6" stroke-width="1.16666667" points="286.525314 238.524324 347.938029 458.780612 77.9380285 292.383479 251.822993 219.780612"></polyline>
                    <path d="M317.45128,197.713559 L388.289989,177.022659" id="Path-20" stroke="#E0B4B7" stroke-width="1.16666667" opacity="0.6"></path>
                    <path d="M407.9135,162.998773 L473.9135,71.9987725" id="Path-24" stroke="#BACAD9" stroke-width="1.16666667"></path>
                    <path d="M529.565672,262.164092 L411.596262,178.856347" id="Path-25" stroke="#CFDAE6" stroke-width="1.16666667"></path>
                    <circle id="Oval-5" fill="#C1D1E0" cx="311.806042" cy="17.5612216" r="17.5"></circle>
                    <circle id="Oval-5-Copy" fill="#D3DDE6" cx="538.457243" cy="269.750105" r="17.5"></circle>
                    <circle id="Oval-5-Copy-3" fill="#C1D1E0" cx="78.0455028" cy="295.186888" r="10.5"></circle>
                    <circle id="Oval-5-Copy-2" fill-opacity="0.6" fill="#D1DEED" cx="17.8838934" cy="66.2620512" r="17.5"></circle>
                    <circle id="Oval-5-Copy-4" fill-opacity="0.6" fill="#D1DEED" cx="484.033236" cy="60.1146421" r="11.5"></circle>
                    <circle id="Oval-5-Copy-5" fill="#E0B4B7" cx="349.231761" cy="461.809255" r="10.5"></circle>
                </g>
                <g id="Group-18" opacity="0.8" transform="translate(75.000000, 570.039841) rotate(-7.000000) translate(-75.000000, -570.039841) translate(5.000000, 525.539841)">
                    <ellipse id="Oval-11" fill="#CFDAE6" opacity="0.25" cx="63.5748792" cy="32.468367" rx="21.7830479" ry="21.766008"></ellipse>
                    <ellipse id="Oval-3" fill="#CFDAE6" opacity="0.599999964" cx="5.98746479" cy="13.8668601" rx="5.2173913" ry="5.21330997"></ellipse>
                    <path d="M38.1354514,88.3520215 C43.8984227,88.3520215 48.570234,83.6838647 48.570234,77.9254015 C48.570234,72.1669383 43.8984227,67.4987816 38.1354514,67.4987816 C32.3724801,67.4987816 27.7006688,72.1669383 27.7006688,77.9254015 C27.7006688,83.6838647 32.3724801,88.3520215 38.1354514,88.3520215 Z" id="Oval-3-Copy" fill="#CFDAE6" opacity="0.45"></path>
                    <path d="M64.2775582,33.1704963 L119.185836,16.5654915" id="Path-12" stroke="#CFDAE6" stroke-width="1.73913043" stroke-linecap="round" stroke-linejoin="round"></path>
                    <path d="M42.1431708,26.5002681 L7.71190162,14.5640702" id="Path-16" stroke="#E0B4B7" stroke-width="0.702678964" opacity="0.7" stroke-linecap="round" stroke-linejoin="round" stroke-dasharray="1.405357899873153,2.108036953469981"></path>
                    <path d="M63.9262187,33.521561 L43.6721326,69.3250951" id="Path-15" stroke="#BACAD9" stroke-width="0.702678964" stroke-linecap="round" stroke-linejoin="round" stroke-dasharray="1.405357899873153,2.108036953469981"></path>
                    <g id="Group-17" transform="translate(126.850922, 13.543654) rotate(30.000000) translate(-126.850922, -13.543654) translate(117.285705, 4.381889)" fill="#CFDAE6">
                        <ellipse id="Oval-4" opacity="0.45" cx="9.13482653" cy="9.12768076" rx="9.13482653" ry="9.12768076"></ellipse>
                        <path d="M18.2696531,18.2553615 C18.2696531,13.2142826 14.1798519,9.12768076 9.13482653,9.12768076 C4.08980114,9.12768076 0,13.2142826 0,18.2553615 L18.2696531,18.2553615 Z" id="Oval-4" transform="translate(9.134827, 13.691521) scale(-1, -1) translate(-9.134827, -13.691521) "></path>
                    </g>
                </g>
                <g id="Group-14" transform="translate(216.393284, 124.066282) rotate(-5.000000) translate(-216.393284, -124.066282) translate(106.393284, 35.566282)">
                    <ellipse id="Oval-2" fill="#CFDAE6" opacity="0.25" cx="29.1176471" cy="29.1402439" rx="29.1176471" ry="29.1402439"></ellipse>
                    <ellipse id="Oval-2" fill="#CFDAE6" opacity="0.3" cx="29.1176471" cy="29.1402439" rx="21.5686275" ry="21.5853659"></ellipse>
                    <ellipse id="Oval-2-Copy" stroke="#CFDAE6" opacity="0.4" cx="179.019608" cy="138.146341" rx="23.7254902" ry="23.7439024"></ellipse>
                    <ellipse id="Oval-2" fill="#BACAD9" opacity="0.5" cx="29.1176471" cy="29.1402439" rx="10.7843137" ry="10.7926829"></ellipse>
                    <path d="M29.1176471,39.9329268 L29.1176471,18.347561 C23.1616351,18.347561 18.3333333,23.1796097 18.3333333,29.1402439 C18.3333333,35.1008781 23.1616351,39.9329268 29.1176471,39.9329268 Z" id="Oval-2" fill="#BACAD9"></path>
                    <g id="Group-9" opacity="0.45" transform="translate(172.000000, 131.000000)" fill="#E6A1A6">
                        <ellipse id="Oval-2-Copy-2" cx="7.01960784" cy="7.14634146" rx="6.47058824" ry="6.47560976"></ellipse>
                        <path d="M0.549019608,13.6219512 C4.12262681,13.6219512 7.01960784,10.722722 7.01960784,7.14634146 C7.01960784,3.56996095 4.12262681,0.670731707 0.549019608,0.670731707 L0.549019608,13.6219512 Z" id="Oval-2-Copy-2" transform="translate(3.784314, 7.146341) scale(-1, 1) translate(-3.784314, -7.146341) "></path>
                    </g>
                    <ellipse id="Oval-10" fill="#CFDAE6" cx="218.382353" cy="138.685976" rx="1.61764706" ry="1.61890244"></ellipse>
                    <ellipse id="Oval-10-Copy-2" fill="#E0B4B7" opacity="0.35" cx="179.558824" cy="175.381098" rx="1.61764706" ry="1.61890244"></ellipse>
                    <ellipse id="Oval-10-Copy" fill="#E0B4B7" opacity="0.35" cx="180.098039" cy="102.530488" rx="2.15686275" ry="2.15853659"></ellipse>
                    <path d="M28.9985381,29.9671598 L171.151018,132.876024" id="Path-11" stroke="#CFDAE6" opacity="0.8"></path>
                </g>
                <g id="Group-10" opacity="0.799999952" transform="translate(1054.199219, 37.000000) rotate(-11.000000) translate(-1054.199219, -37.000000) translate(1026.699219, 5.000000)">
                    <ellipse id="Oval-7" stroke="#CFDAE6" stroke-width="0.941176471" cx="43.8135593" cy="32" rx="11.1864407" ry="11.2941176"></ellipse>
                    <g id="Group-12" transform="translate(34.596774, 23.111111)" fill="#BACAD9">
                        <ellipse id="Oval-7" opacity="0.45" cx="9.18534718" cy="8.88888889" rx="8.47457627" ry="8.55614973"></ellipse>
                        <path d="M9.18534718,17.4450386 C13.8657264,17.4450386 17.6599235,13.6143199 17.6599235,8.88888889 C17.6599235,4.16345787 13.8657264,0.332739156 9.18534718,0.332739156 L9.18534718,17.4450386 Z" id="Oval-7"></path>
                    </g>
                    <path d="M34.6597385,24.809694 L5.71666084,4.76878945" id="Path-2" stroke="#CFDAE6" stroke-width="0.941176471"></path>
                    <ellipse id="Oval" stroke="#CFDAE6" stroke-width="0.941176471" cx="3.26271186" cy="3.29411765" rx="3.26271186" ry="3.29411765"></ellipse>
                    <ellipse id="Oval-Copy" fill="#F7E1AD" cx="2.79661017" cy="61.1764706" rx="2.79661017" ry="2.82352941"></ellipse>
                    <path d="M34.6312443,39.2922712 L5.06366663,59.785082" id="Path-10" stroke="#CFDAE6" stroke-width="0.941176471"></path>
                </g>
                <g id="Group-4-Copy" opacity="0.850000024" transform="translate(136.836565, 188.078664) rotate(-16.000000) translate(-136.836565, -188.078664) translate(116.836565, 168.078664)">
                    <circle id="Oval-8" stroke="#CFDAE6" stroke-width="0.8" cx="20" cy="20" r="17.3913043"></circle>
                    <path d="M19.9719077,4.34782609 C14.5457738,4.34782609 9.76452935,7.1089261 6.95652174,11.3027787 M19.9719077,35.6521739 L19.9719077,35.6521739 C25.6693184,35.6521739 30.6557459,32.6080932 33.3934864,28.0576356" id="Oval-8" stroke="#DDE4EB" stroke-width="0.782608696"></path>
                    <circle id="Oval-9" stroke="#CFDAE6" stroke-width="0.869565217" fill="#F0F2F5" cx="20" cy="2.60869565" r="2.60869565"></circle>
                    <circle id="Oval-9-Copy-2" fill="#CFDAE6" cx="37.3913043" cy="20" r="2.60869565"></circle>
                    <circle id="Oval-9-Copy-3" fill="#F7E1AD" cx="2.60869565" cy="20" r="2.60869565"></circle>
                    <circle id="Oval-9-Copy" fill="#CFDAE6" cx="20" cy="37.3913043" r="2.60869565"></circle>
                </g>
                <g id="Group-19" opacity="0.329999983" transform="translate(1282.635802, 446.843550) rotate(-10.000000) translate(-1282.635802, -446.843550) translate(1142.635802, 327.843550)">
                    <g id="Group-17" transform="translate(141.333539, 104.502742) rotate(275.000000) translate(-141.333539, -104.502742) translate(129.333539, 92.502742)" fill="#BACAD9">
                        <circle id="Oval-4" opacity="0.45" cx="11.6666667" cy="11.6666667" r="11.6666667"></circle>
                        <path d="M23.3333333,23.3333333 C23.3333333,16.8900113 18.1099887,11.6666667 11.6666667,11.6666667 C5.22334459,11.6666667 0,16.8900113 0,23.3333333 L23.3333333,23.3333333 Z" id="Oval-4" transform="translate(11.666667, 17.500000) scale(-1, -1) translate(-11.666667, -17.500000) "></path>
                    </g>
                    <circle id="Oval-5-Copy-6" fill="#CFDAE6" cx="201.833333" cy="87.5" r="5.83333333"></circle>
                    <path d="M143.5,88.8126685 L155.070501,17.6038544" id="Path-17" stroke="#BACAD9" stroke-width="1.16666667"></path>
                    <path d="M17.5,37.3333333 L127.466252,97.6449735" id="Path-18" stroke="#BACAD9" stroke-width="1.16666667"></path>
                    <polyline id="Path-19" stroke="#CFDAE6" stroke-width="1.16666667" points="143.902597 120.302281 174.935455 231.571342 38.5 147.510847 126.366941 110.833333"></polyline>
                    <path d="M159.833333,99.7453842 L195.416667,89.25" id="Path-20" stroke="#E0B4B7" stroke-width="1.16666667" opacity="0.6"></path>
                    <path d="M205.333333,82.1372105 L238.719406,36.1666667" id="Path-24" stroke="#BACAD9" stroke-width="1.16666667"></path>
                    <path d="M266.723424,132.231988 L207.083333,90.4166667" id="Path-25" stroke="#CFDAE6" stroke-width="1.16666667"></path>
                    <circle id="Oval-5" fill="#C1D1E0" cx="156.916667" cy="8.75" r="8.75"></circle>
                    <circle id="Oval-5-Copy" fill="#D3DDE6" cx="271.25" cy="135.916667" r="8.75"></circle>
                    <circle id="Oval-5-Copy-3" fill="#C1D1E0" cx="39.0833333" cy="148.75" r="5.25"></circle>
                    <circle id="Oval-5-Copy-2" fill-opacity="0.6" fill="#D1DEED" cx="8.75" cy="33.25" r="8.75"></circle>
                    <circle id="Oval-5-Copy-4" fill-opacity="0.6" fill="#D1DEED" cx="243.833333" cy="30.3333333" r="5.83333333"></circle>
                    <circle id="Oval-5-Copy-5" fill="#E0B4B7" cx="175.583333" cy="232.75" r="5.25"></circle>
                </g>
            </g>
        </g>
    </g>
</svg>