<?xml version="1.0" encoding="UTF-8"?>
<svg width="180px" height="30px" viewBox="0 0 180 30" version="1.1" xmlns="http://www.w3.org/2000/svg" xmlns:xlink="http://www.w3.org/1999/xlink">
    <!-- Generator: Sketch 54 (76480) - https://sketchapp.com -->
    <title>Logo</title>
    <desc>Created with Sketch.</desc>
    <defs>
        <linearGradient x1="100%" y1="50%" x2="-45.5984635%" y2="50%" id="linearGradient-1">
            <stop stop-color="#1569F7" offset="0%"></stop>
            <stop stop-color="#2FC7FF" offset="100%"></stop>
        </linearGradient>
    </defs>
    <g id="SoftTracker" stroke="none" stroke-width="1" fill="none" fill-rule="evenodd">
        <g id="主页---正在进行" transform="translate(-40.000000, -17.000000)">
            <g id="Header">
                <g id="Logo" transform="translate(40.000000, 17.000000)">
                    <text id="SoftTracker" font-family="Verdana" font-size="20" font-weight="normal" fill="#3D3D3D">
                        <tspan x="62.8505859" y="23.483871">SoftTracker</tspan>
                    </text>
                    <g fill-rule="nonzero">
                        <path d="M31.9486615,23.5486601 L31.9486615,28.6520737 C31.9486615,29.396129 31.2777396,30 30.451068,30 L1.49759351,30 C0.669923496,30 0,29.396129 0,28.6520737 L0,6.18663594 C0,5.44168203 0.669923496,4.83870968 1.49759351,4.83870968 L30.451068,4.83870968 C31.2777396,4.83870968 31.9486615,5.44168203 31.9486615,6.18663594 L31.9486615,21.9111503 C32.0239458,22.3743818 32.0099216,22.9465355 31.9486616,23.5486588 Z M2.01324841,20.5097464 C2.45689416,20.4437011 4.73241972,20.6158446 6.15275068,21.1440594 C7.0634451,21.4827426 7.25306202,22.3428939 7.42944913,22.3179989 C7.68653566,22.2817141 9.08959435,22.0210153 9.97550202,22.3179989 C10.4189902,22.4666698 10.3042722,22.9345352 10.6638187,23.107017 C11.0233651,23.2794988 11.4228517,22.7816038 11.6306103,22.8692189 C12.0649189,23.0523737 12.0649189,23.3692579 12.2879467,23.4480224 C12.9775847,23.6915749 13.512002,24.0187292 14.0827372,23.7844874 C14.3814183,23.6619024 15.0322246,23.2139586 15.4303633,23.2794988 C15.9735715,23.3689198 16.264599,24.0147242 16.5601815,24.0646832 C16.875275,24.1179398 17.7158039,24.2198441 17.9899446,24.3233541 C18.5677932,24.5415382 19.009881,24.8569485 19.3464021,25.2171108 C20.4849253,25.0146389 21.7875811,24.8997384 23.1715567,24.8997384 C23.9303355,24.8997384 25.8082568,24.9602374 27.2084187,24.3785697 C27.9221644,24.0820591 28.1925528,23.3060963 28.7848687,22.9141401 C28.9424151,22.8098861 29.9166813,18.8721121 30.0522905,18.7591204 C30.0685362,18.7455842 30.0844309,18.7329538 30.0999838,18.7212045 L30.0999838,10.200056 L2.01324841,10.200056 L2.01324841,20.5097464 Z M8.64128194,6.61772948 C8.10696329,6.61772948 7.67448101,7.03329153 7.67448101,7.54670574 C7.67448101,8.06011995 8.10696329,8.475682 8.64128194,8.475682 C9.17560058,8.475682 9.60808286,8.06011995 9.60808286,7.54670574 C9.60808286,7.03329153 9.17560058,6.61772948 8.64128194,6.61772948 Z M5.55283818,6.61772948 C5.01851954,6.61772948 4.58603726,7.03329153 4.58603726,7.54670574 C4.58603726,8.06011995 5.01851954,8.475682 5.55283818,8.475682 C6.08715683,8.475682 6.5196391,8.06011995 6.5196391,7.54670574 C6.5196391,7.03329153 6.08715683,6.61772948 5.55283818,6.61772948 Z M2.46439443,6.61772948 C1.93007579,6.61772948 1.49759351,7.03329153 1.49759351,7.54670574 C1.49759351,8.06011995 1.93007579,8.475682 2.46439443,8.475682 C2.99871307,8.475682 3.43119535,8.06011995 3.43119535,7.54670574 C3.43119535,7.03329153 2.99871307,6.61772948 2.46439443,6.61772948 Z" id="Combined-Shape" fill="url(#linearGradient-1)"></path>
                        <g id="火箭" transform="translate(19.000000, 0.000000)" stroke="#FFFFFF">
                            <path d="M4.56183583,19.7321972 L3.55890263,19.3548387 L2.55596943,19.7321972 C2.55596943,19.7321972 1.91773922,20.2982349 2.00891496,21.0529519 C2.10009071,21.8076689 2.82949667,25.5812538 3.46772688,26.3359708 C4.1059571,25.769933 4.83536306,21.9963481 4.92653881,21.0529519 C5.20006604,20.2982349 4.56183583,19.7321972 4.56183583,19.7321972 Z" id="Path" fill="#FA6400"></path>
                            <path d="M0,22.2580645 C0,22.2580645 1.89189189,19.6200717 3.5,19.4551971 C5.10810811,19.6200717 7,22.2580645 7,22.2580645 C6.90540541,19.4551971 5.77027027,17.6415771 5.77027027,17.6415771 C7.18918919,8.2437276 3.40540541,0 3.40540541,0 C3.40540541,0 -0.283783784,8.2437276 1.22972973,17.6415771 C1.22972973,17.6415771 0,19.6200717 0,22.2580645 Z" id="Path" fill="#0091FF"></path>
                        </g>
                    </g>
                </g>
            </g>
        </g>
    </g>
</svg>